<?xml version="1.0" encoding="utf-8"?>
<!-- Generator: Adobe Illustrator 16.0.2, SVG Export Plug-In . SVG Version: 6.00 Build 0)  -->
<!DOCTYPE svg PUBLIC "-//W3C//DTD SVG 1.1//EN" "http://www.w3.org/Graphics/SVG/1.1/DTD/svg11.dtd">
<svg version="1.1" xmlns="http://www.w3.org/2000/svg" xmlns:xlink="http://www.w3.org/1999/xlink" x="0px" y="0px" width="1024px"
	 height="1024px" viewBox="0 0 1024 1024" enable-background="new 0 0 1024 1024" xml:space="preserve">
<g id="Layer_1">
	<g>
		<path fill="#49433F" d="M281.001,365.45v-49.208l13.161-7.795v-38.607l-46.761,28.002v34.008
			C258.602,343.05,269.801,354.25,281.001,365.45z"/>
		<polygon fill="#787C77" points="281.001,497.683 281.001,379.592 247.401,345.992 247.401,497.683 		"/>
		<rect x="247.401" y="507.683" fill="#787C77" width="33.6" height="116"/>
		<path fill="#787C77" d="M292.627,751.147l23.124-23.125l-34.749-20.582v-73.758h-33.6v92.158l44.303,26.531
			C291.934,751.95,292.234,751.54,292.627,751.147z"/>
		<polygon fill="#49433F" points="300.36,757.556 385.001,808.241 385.001,769.042 324.632,733.284 		"/>
		<path fill="#49433F" d="M385.001,215.441l-80.839,48.41v38.672l80.839-47.881l71.506,42.03c7.955-8.054,15.947-16.07,23.97-24.056
			L385.001,215.441z"/>
		<polygon fill="#49433F" points="396.202,712.212 487.401,804.212 510.602,780.212 419.401,689.011 		"/>
		<path fill="#49433F" d="M489.802,406.682h32.8V297.841l-33.27-19.923c-8.01,7.961-15.986,15.954-23.927,23.983l24.397,14.34
			V406.682z"/>
		<path fill="#49433F" d="M522.602,473.356v-56.674h-32.8v89.473C500.734,495.224,511.668,484.29,522.602,473.356z"/>
		<path fill="#787C77" d="M489.802,520.298v56.385h32.8v-89.184C511.668,498.433,500.734,509.364,489.802,520.298z"/>
		<path fill="#787C77" d="M522.602,673.044v-86.361h-32.8v53.561C500.734,651.177,511.668,662.11,522.602,673.044z"/>
		<path fill="#49433F" d="M489.802,654.386v54.656l32.8,19.199v-41.057C511.668,676.251,500.734,665.317,489.802,654.386z"/>
	</g>
	<g>
		<path fill="#787C77" d="M611.762,713.013v-35.66c-11.199-11.201-22.4-22.4-33.6-33.6v102.859
			C589.363,735.411,600.563,724.212,611.762,713.013z"/>
		<path fill="#787C77" d="M578.162,760.753v36.678h33.6v-70.277C600.563,738.353,589.363,749.552,578.162,760.753z"/>
		<path fill="#787C77" d="M611.762,663.212v-76.529h-33.6v42.93C589.363,640.812,600.563,652.011,611.762,663.212z"/>
		<polygon fill="#49433F" points="659.162,471.031 611.762,471.031 611.762,416.682 578.162,416.682 578.162,576.683 
			611.762,576.683 611.762,504.632 659.162,504.632 		"/>
		<rect x="669.162" y="471.031" fill="#49433F" width="85" height="33.601"/>
		<polygon fill="#787C77" points="789.502,416.682 764.162,458.492 764.162,504.632 774.963,504.632 828.85,416.682 		"/>
		<path fill="#787C77" d="M778.963,227.831h-68.801v32.8h49.6l60.801,104.8l-25,41.251h34.6c1.703,0,2.953,0.701,3.756,1.729
			l25.844-42.18L778.963,227.831z"/>
		<polygon fill="#49433F" points="611.762,311.211 611.762,260.631 700.162,260.631 700.162,227.831 578.162,227.831 
			578.162,277.611 		"/>
		<polygon fill="#49433F" points="578.162,291.753 578.162,406.682 611.762,406.682 611.762,325.353 		"/>
	</g>
</g>
<g id="Layer_2" display="none">
</g>
</svg>
