<?xml version="1.0" encoding="utf-8"?>
<!-- Generator: Adobe Illustrator 16.0.2, SVG Export Plug-In . SVG Version: 6.00 Build 0)  -->
<!DOCTYPE svg PUBLIC "-//W3C//DTD SVG 1.1//EN" "http://www.w3.org/Graphics/SVG/1.1/DTD/svg11.dtd">
<svg version="1.1" id="Layer_1" xmlns="http://www.w3.org/2000/svg" xmlns:xlink="http://www.w3.org/1999/xlink" x="0px" y="0px"
	 width="612px" height="792px" viewBox="0 0 612 792" enable-background="new 0 0 612 792" xml:space="preserve">
<g id="Layer_1_1_">
	
		<image display="none" overflow="visible" enable-background="new    " width="512" height="512" xlink:href="Gmail_Icon.png"  transform="matrix(1 0 0 1 50 140)">
	</image>
	<g>
		<path display="none" fill="#FFFFFF" d="M561.5,564.947c0,30.468,0,60.936,0,91.402c-171,0-342,0-513,0c0-173.667,0-347.333,0-521
			c171,0,342,0,513,0c0,31.483,0,62.967,0,94.45c-0.406-0.704-0.994-1.359-1.19-2.12c-2.699-10.458-9.138-17.959-19.002-21.281
			c-10.738-3.616-21.476-5.753-32.193,2.216c-65.59,48.764-131.416,97.199-197.215,145.673c-7.72,5.687-4.99,5.754-12.925-0.085
			c-66.357-48.844-132.661-97.762-199.004-146.625c-1.72-1.267-3.68-3.017-5.572-3.073c-6.632-0.201-13.485-0.737-19.888,0.63
			c-15.986,3.411-24.736,16.208-24.736,34.456c0.003,106.279,0.006,212.561-0.006,318.839c-0.001,15.965,9.731,29.579,25.319,31.684
			c12.372,1.672,25.137,0.338,38.398,0.338c0-97.189,0-194.526,0-292.92c2.533,1.729,4.17,2.786,5.746,3.93
			c60.167,43.705,120.365,87.366,180.417,131.232c4.371,3.191,7.195,3.264,11.606,0.04c60.178-43.975,120.503-87.738,180.8-131.543
			c1.536-1.116,3.155-2.115,5.595-3.741c0,98.53,0,195.912,0,293.749c11.127,0,21.756,0.107,32.382-0.029
			c11.56-0.149,20.471-5.443,26.571-15.295C558.682,572.519,559.893,568.605,561.5,564.947z"/>
		<path fill="#FFFFFF" d="M562,564.879c-1.61,3.668-2.822,7.59-4.905,10.955c-6.111,9.878-15.037,15.185-26.613,15.335
			c-10.643,0.138-21.288,0.029-32.433,0.029c0-98.093,0-195.729,0-294.516c-2.443,1.631-4.065,2.632-5.604,3.751
			c-60.392,43.919-120.812,87.797-181.084,131.887c-4.418,3.232-7.246,3.159-11.623-0.041
			c-60.147-43.98-120.439-87.755-180.7-131.574c-1.579-1.147-3.218-2.208-5.755-3.94c0,98.65,0,196.24,0,293.684
			c-13.282,0-26.066,1.337-38.458-0.339c-15.612-2.109-25.36-15.76-25.358-31.767c0.012-106.556,0.009-213.114,0.006-319.67
			c0-18.295,8.764-31.126,24.775-34.546c6.412-1.37,13.276-0.833,19.919-0.632c1.895,0.058,3.858,1.811,5.581,3.082
			c66.447,48.99,132.854,98.036,199.316,147.007c7.948,5.855,5.213,5.787,12.946,0.085
			c65.902-48.601,131.832-97.163,197.523-146.053c10.735-7.99,21.489-5.847,32.244-2.222c9.88,3.331,16.328,10.85,19.032,21.336
			c0.196,0.762,0.784,1.42,1.192,2.125C562,340.866,562,452.872,562,564.879z"/>
	</g>
</g>
<g id="Layer_2">
</g>
</svg>
