<?xml version="1.0" encoding="utf-8"?>
<!-- Generator: Adobe Illustrator 16.0.2, SVG Export Plug-In . SVG Version: 6.00 Build 0)  -->
<!DOCTYPE svg PUBLIC "-//W3C//DTD SVG 1.1//EN" "http://www.w3.org/Graphics/SVG/1.1/DTD/svg11.dtd">
<svg version="1.1" id="Layer_1" xmlns="http://www.w3.org/2000/svg" xmlns:xlink="http://www.w3.org/1999/xlink" x="0px" y="0px"
	 width="612px" height="792px" viewBox="0 0 612 792" enable-background="new 0 0 612 792" xml:space="preserve">
<g id="Layer_1_1_">
	
		<image display="none" overflow="visible" enable-background="new    " width="2000" height="2019" xlink:href="2000px-Outlook.com_icon.svg.png"  transform="matrix(0.248 0 0 0.2779 61.8101 125.6367)">
	</image>
	<g>
		<g>
			<path fill="#FFFFFF" d="M62.307,620.148c0-143.51,0-287.02,0-430.528c0.568-0.023,1.154,0.035,1.701-0.083
				c7.087-1.528,14.167-3.089,21.251-4.626c7.007-1.519,14.02-3.013,21.027-4.53c7.409-1.604,14.814-3.228,22.223-4.835
				c7.005-1.52,14.014-3.022,21.018-4.544c10.551-2.292,21.098-4.599,31.649-6.889c7.005-1.521,14.011-3.038,21.022-4.532
				c9.028-1.924,18.066-3.802,27.091-5.741c6.041-1.298,12.059-2.7,18.099-3.996c5.32-1.141,10.671-2.14,15.984-3.308
				c8.531-1.875,17.035-3.873,25.565-5.75c5.392-1.187,10.82-2.203,16.216-3.372c8.94-1.937,17.867-3.934,26.798-5.907
				c6.272-1.386,12.545-2.787,18.823-4.15c1.176-0.255,2.383-0.363,3.545-0.534c0.593,2.289,0.591,557.693,0.064,559.753
				c-1.926,0.45-5.133,0.495-7.068,0.056c-4.417-1.004-8.835-2.009-13.245-3.043c-8.9-2.088-17.799-4.182-26.691-6.3
				c-8.491-2.021-16.964-4.117-25.462-6.105c-8.422-1.971-16.877-3.803-25.297-5.78c-7.775-1.828-15.516-3.804-23.286-5.653
				c-9.853-2.348-19.719-4.634-29.579-6.951c-6.332-1.486-12.661-2.988-18.994-4.473c-7.056-1.654-14.117-3.291-21.173-4.945
				c-6.331-1.482-12.659-2.981-18.989-4.47c-6.414-1.508-12.823-3.031-19.244-4.509c-5.62-1.293-11.261-2.494-16.877-3.807
				c-8.177-1.911-16.34-3.881-24.508-5.834c-5.767-1.379-11.522-2.809-17.302-4.134C65.254,620.305,63.763,620.301,62.307,620.148z
				 M277.423,405.754c-0.215-4.37-0.437-8.741-0.642-13.112c-0.393-8.356-1.644-16.593-3.61-24.711
				c-3.587-14.807-9.635-28.425-19.678-40.073c-5.297-6.144-11.52-11.11-18.915-14.473c-6.917-3.145-14.256-4.69-21.839-4.753
				c-7.055-0.059-13.921,1.152-20.596,3.563c-8.085,2.92-14.951,7.621-20.885,13.75c-7.865,8.122-13.541,17.651-17.787,28.068
				c-6.155,15.098-8.668,30.945-9.365,47.117c-0.441,10.242-0.097,20.468,1.279,30.66c1.432,10.611,3.88,20.938,8.124,30.777
				c5.926,13.736,14.136,25.742,26.802,34.216c5.548,3.711,11.649,6.13,18.168,7.516c5.38,1.145,10.835,1.144,16.284,0.906
				c5.399-0.235,10.63-1.497,15.636-3.466c9.838-3.869,17.789-10.314,24.34-18.528c8.046-10.087,13.485-21.506,17.006-33.863
				C275.803,435.104,277.322,420.531,277.423,405.754z"/>
			<path fill="none" d="M62.307,620.148c1.457,0.151,2.947,0.155,4.364,0.479c5.78,1.325,11.535,2.755,17.302,4.134
				c8.167,1.953,16.331,3.923,24.508,5.834c5.616,1.313,11.257,2.514,16.877,3.807c6.42,1.478,12.83,3.001,19.244,4.509
				c6.33,1.487,12.658,2.985,18.989,4.47c7.056,1.654,14.117,3.291,21.173,4.945c6.333,1.483,12.662,2.984,18.994,4.473
				c9.859,2.317,19.726,4.604,29.579,6.951c7.77,1.851,15.511,3.825,23.286,5.653c8.42,1.979,16.875,3.811,25.297,5.78
				c8.498,1.988,16.971,4.084,25.462,6.105c8.894,2.118,17.791,4.212,26.691,6.3c4.41,1.034,8.828,2.039,13.245,3.043
				c1.937,0.439,5.144,0.396,7.068-0.056c0.525-2.061,0.527-557.465-0.064-559.753c-1.162,0.171-2.369,0.279-3.545,0.534
				c-6.278,1.363-12.551,2.764-18.823,4.15c-8.932,1.973-17.858,3.97-26.798,5.907c-5.396,1.169-10.825,2.186-16.216,3.372
				c-8.531,1.876-17.034,3.875-25.565,5.75c-5.313,1.168-10.665,2.167-15.984,3.308c-6.041,1.296-12.059,2.698-18.099,3.996
				c-9.025,1.939-18.063,3.817-27.091,5.741c-7.011,1.494-14.017,3.012-21.022,4.532c-10.551,2.291-21.098,4.598-31.649,6.889
				c-7.004,1.521-14.013,3.024-21.018,4.544c-7.409,1.607-14.813,3.23-22.223,4.835c-7.007,1.518-14.02,3.011-21.027,4.53
				c-7.085,1.537-14.165,3.098-21.251,4.626c-0.547,0.118-1.133,0.06-1.701,0.083c0-21.155,0-42.31,0-63.464
				c165.333,0,330.666,0,496,0c0,44.979,0,89.933,0,134.888c-0.229-0.323-0.5-0.625-0.682-0.972
				c-0.991-1.895-1.758-3.941-2.973-5.676c-3.841-5.479-8.646-8.661-15.904-8.634c-53.806,0.198-107.613,0.109-161.42,0.104
				c-3.551,0-3.355-0.146-3.355,3.393c0.003,34.218,0.025,68.437-0.048,102.655c-0.006,2.49,0.449,4.345,2.864,5.399
				c0.513,0.224,0.9,0.719,1.373,1.051c9.582,6.735,19.169,13.462,28.753,20.196c1.925,1.353,3.982,1.312,5.889-0.123
				c5.734-4.315,11.478-8.621,17.208-12.94c5.271-3.972,10.537-7.951,15.801-11.935c6.646-5.03,13.275-10.079,19.93-15.098
				c7.641-5.764,15.309-11.491,22.948-17.257c6.649-5.019,13.268-10.08,19.916-15.101c7.572-5.72,15.176-11.4,22.743-17.125
				c8.489-6.42,16.951-12.875,25.44-19.296c0.435-0.329,1.008-0.475,1.517-0.706c0,14.88,0,29.76,0,44.64
				c-0.512,0.527-0.963,1.135-1.546,1.567c-6.759,5.015-13.557,9.976-20.306,15.002c-9.729,7.246-19.411,14.555-29.143,21.799
				c-10.922,8.129-21.892,16.193-32.808,24.328c-9.726,7.249-19.405,14.558-29.107,21.837
				c-10.033,7.526-20.086,15.027-30.095,22.589c-2.509,1.896-7.916,2.551-11.309-0.169c-9.076-7.277-18.359-14.298-27.572-21.406
				c-0.691-0.533-1.473-0.953-2.273-1.465c0,49.339,0,98.473,0,147.84c1.29,0.072,2.418,0.189,3.546,0.189
				c51.076,0.01,102.151,0.01,153.229,0.004c1.652-0.001,3.305-0.104,4.956-0.116c3.401-0.025,6.526-1.201,9.435-2.723
				c6.519-3.408,10.369-9.003,12.291-16.018c0.142-0.516,0.465-0.979,0.703-1.468c0,54.063,0,108.128,0,162.19
				c-165.334,0-330.667,0-496,0C62.307,665.119,62.307,642.634,62.307,620.148z"/>
			<path fill="#FFFFFF" d="M558.307,525.413c-0.237,0.488-0.562,0.952-0.703,1.468c-1.921,7.016-5.771,12.608-12.291,16.019
				c-2.906,1.521-6.031,2.695-9.434,2.722c-1.652,0.013-3.304,0.115-4.956,0.116c-51.076,0.006-102.152,0.006-153.229-0.003
				c-1.128,0-2.257-0.118-3.546-0.19c0-49.367,0-98.501,0-147.84c0.802,0.512,1.582,0.932,2.273,1.465
				c9.213,7.108,18.496,14.129,27.572,21.406c3.393,2.72,8.8,2.063,11.309,0.169c10.008-7.562,20.062-15.063,30.094-22.589
				c9.703-7.279,19.384-14.589,29.108-21.837c10.916-8.135,21.886-16.199,32.807-24.328c9.731-7.244,19.413-14.553,29.144-21.799
				c6.749-5.026,13.547-9.988,20.306-15.002c0.583-0.432,1.034-1.04,1.546-1.567C558.307,384.218,558.307,454.815,558.307,525.413z"
				/>
			<path fill="#FFFFFF" d="M558.307,268.98c-0.509,0.231-1.082,0.377-1.517,0.706c-8.489,6.421-16.951,12.876-25.44,19.296
				c-7.567,5.725-15.171,11.405-22.743,17.125c-6.648,5.021-13.267,10.083-19.916,15.101c-7.641,5.766-15.309,11.493-22.948,17.257
				c-6.653,5.019-13.284,10.068-19.93,15.098c-5.264,3.983-10.528,7.963-15.801,11.935c-5.73,4.319-11.474,8.625-17.208,12.94
				c-1.905,1.435-3.964,1.476-5.889,0.123c-9.584-6.734-19.171-13.461-28.753-20.196c-0.473-0.332-0.86-0.828-1.373-1.051
				c-2.415-1.054-2.87-2.909-2.864-5.399c0.073-34.218,0.051-68.437,0.048-102.655c0-3.537-0.194-3.393,3.355-3.393
				c53.807,0.004,107.614,0.094,161.42-0.104c7.258-0.027,12.064,3.155,15.904,8.634c1.215,1.734,1.98,3.781,2.973,5.676
				c0.182,0.348,0.452,0.649,0.682,0.972C558.307,263.69,558.307,266.335,558.307,268.98z"/>
			<path fill="none" d="M277.423,405.754c-0.101,14.777-1.621,29.352-5.678,43.592c-3.521,12.357-8.96,23.776-17.006,33.863
				c-6.552,8.214-14.502,14.659-24.34,18.528c-5.006,1.969-10.237,3.229-15.636,3.466c-5.449,0.236-10.904,0.237-16.284-0.906
				c-6.519-1.386-12.62-3.805-18.168-7.516c-12.666-8.474-20.876-20.479-26.802-34.216c-4.244-9.839-6.691-20.166-8.124-30.777
				c-1.375-10.192-1.72-20.418-1.279-30.66c0.697-16.171,3.21-32.019,9.365-47.117c4.246-10.417,9.921-19.946,17.787-28.068
				c5.935-6.128,12.8-10.83,20.885-13.75c6.675-2.411,13.542-3.622,20.596-3.563c7.583,0.063,14.921,1.608,21.839,4.753
				c7.395,3.362,13.617,8.329,18.915,14.473c10.043,11.648,16.091,25.267,19.678,40.073c1.966,8.119,3.218,16.355,3.61,24.711
				C276.986,397.013,277.208,401.384,277.423,405.754z M244.334,407.454c0.104-8.421-0.461-17.142-2.169-25.758
				c-1.501-7.57-3.806-14.862-7.906-21.483c-4.703-7.594-11.021-12.854-20.222-13.9c-6.806-0.773-12.896,1.095-18.337,5.151
				c-4.819,3.592-8.067,8.455-10.713,13.742c-5.114,10.218-7.208,21.228-7.842,32.492c-0.59,10.473-0.463,20.965,1.391,31.356
				c1.668,9.354,4.471,18.278,9.984,26.146c4.354,6.214,9.84,10.875,17.626,12.128c9.43,1.518,17.43-1.189,23.922-8.219
				c5.336-5.778,8.479-12.734,10.624-20.188C243.618,428.756,244.45,418.332,244.334,407.454z"/>
			<path fill="#FFFFFF" d="M244.334,407.454c0.116,10.878-0.716,21.302-3.642,31.467c-2.146,7.454-5.288,14.41-10.624,20.188
				c-6.492,7.028-14.493,9.735-23.922,8.219c-7.786-1.253-13.272-5.914-17.626-12.128c-5.513-7.867-8.316-16.792-9.984-26.146
				c-1.854-10.393-1.98-20.885-1.391-31.356c0.634-11.264,2.728-22.273,7.842-32.492c2.646-5.287,5.894-10.149,10.713-13.742
				c5.44-4.056,11.531-5.924,18.337-5.151c9.201,1.045,15.519,6.306,20.222,13.9c4.1,6.621,6.405,13.913,7.906,21.483
				C243.874,390.313,244.439,399.033,244.334,407.454z"/>
		</g>
	</g>
</g>
<g id="Layer_2">
</g>
</svg>
