<?xml version="1.0" encoding="utf-8"?>
<!-- Generator: Adobe Illustrator 16.0.2, SVG Export Plug-In . SVG Version: 6.00 Build 0)  -->
<!DOCTYPE svg PUBLIC "-//W3C//DTD SVG 1.1//EN" "http://www.w3.org/Graphics/SVG/1.1/DTD/svg11.dtd">
<svg version="1.1" id="Layer_1" xmlns="http://www.w3.org/2000/svg" xmlns:xlink="http://www.w3.org/1999/xlink" x="0px" y="0px"
	 width="612px" height="792px" viewBox="0 0 612 792" enable-background="new 0 0 612 792" xml:space="preserve">
<g>
	<g>
		<g>
			<path display="none" d="M612.063,608.997c0.032,51.364-41.578,93.03-92.941,93.063c-0.041,0-0.082,0-0.123,0H93.003
				C41.639,702.063,0,660.423,0,609.059c0-0.021,0-0.041,0-0.062V183.003C0,131.639,41.639,90,93.003,90h425.994
				c51.364-0.034,93.03,41.578,93.063,92.941c0,0.021,0,0.041,0,0.062v425.994H612.063z"/>
		</g>
	</g>
	<path fill="#FFFFFF" d="M299.083,203.231c-110.4-0.052-199.94,89.404-199.993,199.805
		c-0.038,79.444,46.973,151.371,119.752,183.223c-0.862-15.387,0.3-30.819,3.458-45.903c3.856-16.25,25.737-108.946,25.737-108.946
		c-4.312-9.973-6.451-20.75-6.273-31.613c0-29.593,17.199-51.75,38.59-51.75c18.148,0,26.931,13.649,26.931,29.991
		c0,18.361-11.66,45.629-17.658,70.938c-5.019,21.208,10.65,38.499,31.521,38.499c37.887,0,63.379-48.628,63.379-106.285
		c0-43.793-29.501-76.507-83.179-76.507c-60.625,0-98.389,45.201-98.389,95.695c0,17.413,5.141,29.716,13.159,39.203
		c3.703,4.376,4.224,6.12,2.877,11.14c-0.949,3.702-3.061,12.547-4.07,16.035c-0.594,3.757-4.12,6.32-7.876,5.728
		c-0.745-0.117-1.464-0.356-2.131-0.707c-28.032-11.478-41.039-42.079-41.039-76.386c0-56.769,47.894-124.83,142.885-124.83
		c76.294,0,126.575,55.085,126.575,114.517c0,78.405-43.608,137.01-107.876,137.01c-21.576,0-41.896-11.66-48.965-24.911
		c0,0-11.629,45.904-14.077,55.085c-4.655,15.161-11.435,29.586-20.137,42.846c106.024,30.773,216.923-30.229,247.698-136.255
		c30.774-106.024-30.229-216.923-136.255-247.698C335.968,205.997,317.577,203.331,299.083,203.231"/>
</g>
</svg>
