<?xml version="1.0" encoding="utf-8"?>
<!-- Generator: Adobe Illustrator 16.0.2, SVG Export Plug-In . SVG Version: 6.00 Build 0)  -->
<!DOCTYPE svg PUBLIC "-//W3C//DTD SVG 1.1//EN" "http://www.w3.org/Graphics/SVG/1.1/DTD/svg11.dtd">
<svg version="1.1" id="Layer_1" xmlns="http://www.w3.org/2000/svg" xmlns:xlink="http://www.w3.org/1999/xlink" x="0px" y="0px"
	 width="612px" height="792px" viewBox="0 0 612 792" enable-background="new 0 0 612 792" xml:space="preserve">
<g id="Layer_1_1_">
	<g>
		<g>
			<path fill="#FFFFFF" d="M234.254,211.423c4.062,0,8.124,0,12.186,0c0.618,0.085,1.234,0.231,1.854,0.248
				c13.019,0.353,25.89,1.977,38.602,4.746c23.376,5.091,45.281,13.85,65.499,26.706c25.218,16.035,45.684,36.748,61.116,62.361
				c15.238,25.29,23.922,52.718,26.588,82.095c1.17,12.894,1.123,25.783-0.132,38.655c-1.271,13.039-3.805,25.845-7.697,38.364
				c-10.278,33.061-28.171,61.294-53.834,84.54c-23.777,21.538-51.395,36.033-82.316,44.306
				c-14.808,3.961-29.899,6.187-45.218,6.901c-17.24,0.807-34.353-0.273-51.318-3.428c-13.854-2.574-27.333-6.479-40.381-11.826
				c-19.214-7.873-36.86-18.364-52.673-31.845c-29.568-25.208-49.571-56.565-60.06-93.97c-3.674-13.104-5.879-26.472-6.676-40.063
				c-0.145-2.466-0.347-4.928-0.522-7.392c0-3.881,0-7.764,0-11.646c0.087-0.706,0.194-1.411,0.258-2.12
				c0.669-7.358,1.032-14.761,2.057-22.07c2.143-15.27,6.219-30.058,12.068-44.341c11.905-29.07,29.923-53.686,54.03-73.803
				c20.804-17.361,44.322-29.71,70.267-37.447c17.494-5.216,35.374-8.114,53.624-8.713
				C232.47,211.654,233.361,211.513,234.254,211.423z M253.1,420.884c-21.093-26.064-42.09-52.009-63.372-78.307
				c14.159-1.12,27.969-2.212,41.753-3.302c0.628-6.789,1.246-13.451,1.863-20.125c-50.941,0-101.816,0-152.692,0
				c0,6.79,0,13.445,0,20.217c1.617,0.111,3.14,0.21,4.661,0.322c6.747,0.499,13.494,0.999,20.24,1.501
				c6.522,0.486,13.046,0.95,19.563,1.501c0.658,0.056,1.455,0.493,1.878,1.007c28.412,34.473,56.791,68.974,85.19,103.457
				c0.669,0.813,0.978,1.606,0.976,2.674c-0.031,17.015-0.021,34.03-0.021,51.045c0,0.536,0,1.072,0,1.624
				c-0.364,0.098-0.617,0.207-0.876,0.229c-4.585,0.375-9.17,0.752-13.756,1.104c-11.018,0.846-22.036,1.688-33.057,2.502
				c-1.024,0.076-1.361,0.446-1.35,1.492c0.051,5.054,0.021,10.108,0.027,15.164c0.001,0.394,0.057,0.786,0.098,1.333
				c0.53,0,0.969,0,1.409,0c49.375,0,98.75-0.005,148.125,0.026c1.24,0,1.496-0.402,1.483-1.549c-0.059-4.964-0.058-9.93,0-14.894
				c0.013-1.103-0.317-1.505-1.42-1.548c-3.831-0.151-7.658-0.43-11.49-0.567c-11.454-0.416-22.909-0.788-34.364-1.186
				c-0.562-0.021-1.121-0.124-1.734-0.195c0-0.678-0.012-1.215,0.001-1.752c0.453-18.407,0.9-36.814,1.402-55.221
				c0.017-0.604,0.463-1.345,0.938-1.769c6.965-6.226,13.989-12.384,20.958-18.604c20.437-18.239,40.853-36.502,61.292-54.739
				c0.436-0.389,1.049-0.761,1.604-0.803c11.153-0.854,22.313-1.643,33.468-2.48c3.134-0.235,6.261-0.583,9.45-0.885
				c0-7.886,0-15.667,0-23.732c-42.64,0.616-85.194,1.23-127.725,1.844c0,6.896,0,13.414,0,20.136
				c15.689,0.619,31.276,1.234,47.257,1.865C294.113,385.956,273.68,403.356,253.1,420.884z"/>
			<path fill="none" d="M39.271,411.822c0.175,2.464,0.377,4.926,0.522,7.392c0.797,13.593,3.001,26.96,6.676,40.063
				c10.488,37.403,30.491,68.762,60.06,93.97c15.813,13.479,33.459,23.972,52.673,31.845c13.048,5.347,26.527,9.252,40.381,11.826
				c16.965,3.153,34.078,4.232,51.318,3.428c15.319-0.716,30.41-2.94,45.218-6.901c30.923-8.271,58.539-22.768,82.316-44.306
				c25.663-23.246,43.556-51.479,53.834-84.54c3.894-12.521,6.427-25.326,7.697-38.364c1.255-12.872,1.302-25.763,0.132-38.655
				c-2.666-29.377-11.35-56.805-26.588-82.095c-15.434-25.613-35.898-46.326-61.116-62.361
				c-20.218-12.855-42.122-21.615-65.499-26.706c-12.712-2.769-25.583-4.393-38.602-4.746c-0.62-0.017-1.236-0.163-1.854-0.248
				c111.574,0,223.147,0,334.722,0c0,129.989,0,259.979,0,389.966c-180.631,0-361.261,0-541.891,0
				C39.271,538.201,39.271,475.012,39.271,411.822z M465.136,224.955c-1.923,92.013-3.841,183.814-5.762,275.749
				c18.393,1.917,36.711,3.826,55.09,5.742c22.119-91.945,44.207-183.76,66.327-275.707
				C542.192,228.809,503.769,226.887,465.136,224.955z M448.438,539.286c0,0.532-0.021,0.8,0.003,1.063
				c0.377,4.132,0.756,8.263,1.14,12.394c0.663,7.138,1.319,14.275,1.997,21.414c0.766,8.079,1.595,16.151,2.288,24.237
				c0.12,1.41,0.533,1.791,1.919,1.789c20.894-0.041,41.787-0.027,62.68-0.031c0.529,0,1.06-0.048,1.671-0.076
				c0-18.36,0-36.613,0-55.059C496.259,543.109,472.413,541.203,448.438,539.286z"/>
			<path fill="none" d="M234.254,211.423c-0.893,0.089-1.784,0.231-2.679,0.26c-18.25,0.599-36.13,3.497-53.624,8.713
				c-25.945,7.737-49.463,20.086-70.267,37.447c-24.107,20.117-42.125,44.733-54.03,73.803
				c-5.849,14.283-9.925,29.071-12.068,44.341c-1.025,7.309-1.388,14.71-2.057,22.07c-0.064,0.709-0.171,1.414-0.258,2.12
				c0-62.918,0-125.836,0-188.754C104.265,211.423,169.26,211.423,234.254,211.423z"/>
			<path fill="none" d="M253.1,420.884c20.58-17.526,41.013-34.928,61.779-52.613c-15.98-0.631-31.567-1.246-47.257-1.865
				c0-6.723,0-13.24,0-20.136c42.529-0.614,85.085-1.229,127.725-1.844c0,8.065,0,15.847,0,23.732
				c-3.189,0.302-6.316,0.65-9.45,0.885c-11.155,0.838-22.313,1.627-33.468,2.48c-0.557,0.042-1.17,0.415-1.604,0.803
				c-20.439,18.236-40.855,36.5-61.292,54.74c-6.969,6.221-13.994,12.379-20.958,18.604c-0.473,0.424-0.92,1.164-0.937,1.77
				c-0.502,18.404-0.949,36.813-1.402,55.22c-0.013,0.537-0.001,1.074-0.001,1.752c0.614,0.071,1.173,0.176,1.734,0.195
				c11.455,0.396,22.91,0.77,34.364,1.186c3.832,0.139,7.659,0.416,11.49,0.567c1.103,0.043,1.433,0.445,1.42,1.548
				c-0.058,4.964-0.059,9.93,0,14.894c0.013,1.146-0.243,1.549-1.483,1.549c-49.375-0.031-98.75-0.026-148.125-0.026
				c-0.44,0-0.879,0-1.409,0c-0.042-0.547-0.097-0.939-0.098-1.333c-0.005-5.055,0.024-10.11-0.027-15.164
				c-0.011-1.046,0.326-1.416,1.35-1.492c11.021-0.813,22.039-1.656,33.057-2.502c4.586-0.353,9.171-0.729,13.756-1.104
				c0.259-0.021,0.512-0.132,0.876-0.229c0-0.552,0-1.088,0-1.624c0-17.015-0.009-34.03,0.021-51.045
				c0.002-1.066-0.306-1.861-0.976-2.674c-28.399-34.483-56.778-68.984-85.19-103.457c-0.424-0.514-1.221-0.952-1.878-1.007
				c-6.517-0.551-13.041-1.015-19.563-1.501c-6.747-0.502-13.493-1.003-20.24-1.501c-1.521-0.112-3.043-0.211-4.661-0.322
				c0-6.772,0-13.427,0-20.217c50.876,0,101.751,0,152.692,0c-0.618,6.673-1.235,13.336-1.863,20.125
				c-13.784,1.09-27.594,2.183-41.753,3.302C211.01,368.875,232.006,394.819,253.1,420.884z"/>
			<path fill="#FFFFFF" d="M465.136,224.955c38.633,1.932,77.058,3.854,115.655,5.784c-22.12,91.947-44.208,183.761-66.327,275.707
				c-18.379-1.916-36.697-3.825-55.09-5.742C461.295,408.77,463.213,316.967,465.136,224.955z"/>
			<path fill="#FFFFFF" d="M448.438,539.286c23.977,1.917,47.821,3.823,71.696,5.73c0,18.444,0,36.697,0,55.059
				c-0.611,0.028-1.142,0.076-1.671,0.076c-20.893,0.004-41.786-0.01-62.68,0.031c-1.386,0.002-1.799-0.379-1.919-1.789
				c-0.693-8.086-1.522-16.158-2.288-24.237c-0.678-7.139-1.334-14.276-1.997-21.414c-0.384-4.131-0.763-8.262-1.14-12.394
				C448.416,540.086,448.438,539.818,448.438,539.286z"/>
		</g>
	</g>
</g>
<g id="Layer_2">
</g>
</svg>
