<?xml version="1.0" encoding="utf-8"?>
<!-- Generator: Adobe Illustrator 16.0.2, SVG Export Plug-In . SVG Version: 6.00 Build 0)  -->
<!DOCTYPE svg PUBLIC "-//W3C//DTD SVG 1.1//EN" "http://www.w3.org/Graphics/SVG/1.1/DTD/svg11.dtd">
<svg version="1.1" id="Layer_1" xmlns="http://www.w3.org/2000/svg" xmlns:xlink="http://www.w3.org/1999/xlink" x="0px" y="0px"
	 width="612px" height="792px" viewBox="0 0 612 792" enable-background="new 0 0 612 792" xml:space="preserve">
<g>
	<g display="none">
		<g display="inline">
			<path d="M612.063,608.997c0.032,51.364-41.578,93.03-92.941,93.063c-0.041,0-0.082,0-0.123,0H93.003
				C41.639,702.063,0,660.423,0,609.059c0-0.021,0-0.041,0-0.062V183.003C0,131.639,41.639,90,93.003,90h425.994
				c51.364-0.034,93.03,41.578,93.063,92.941c0,0.021,0,0.041,0,0.062v425.994H612.063z"/>
		</g>
	</g>
	<path fill="#FFFFFF" d="M419.507,340.945v-130.92h-23.748v100.316c-5.294,7.437-10.252,11.109-15.025,11.109
		c-3.061,0-5.05-1.897-5.569-5.57c-0.361-3.046-0.464-6.118-0.307-9.181v-96.675H351.17v103.622
		c-0.271,6.567,0.439,13.138,2.112,19.494c2.355,6.641,7.62,9.763,15.301,9.763c8.661,0,17.658-5.264,27.146-16.128v14.169
		L419.507,340.945L419.507,340.945z M307.897,303.12c0,12.241-3.672,18.209-11.323,18.209c-7.651,0-11.354-6.121-11.354-18.209
		v-55.085c0-12.241,3.672-18.178,11.354-18.178c7.682,0,11.323,6.121,11.323,18.178V303.12z M331.676,298.652v-45.905
		c0-14.016-2.417-24.238-7.375-30.878c-12.031-15.288-34.177-17.928-49.464-5.897c-2.192,1.725-4.171,3.705-5.897,5.897
		c-5.049,6.641-7.437,16.862-7.437,30.878v45.905c0,13.924,2.387,24.268,7.437,30.848c12.059,15.288,34.227,17.905,49.514,5.847
		c2.172-1.713,4.135-3.675,5.848-5.847C329.289,322.92,331.676,312.606,331.676,298.652 M261.289,165.192h-26.625l-17.994,69.071
		l-18.699-69.071h-27.727c5.54,16.281,11.354,32.684,16.893,48.965c6.607,18.174,11.985,36.771,16.097,55.667v71.122h26.288v-71.091
		L261.289,165.192z"/>
	<path fill="#FFFFFF" d="M496.442,500.081c0,30.327,0,62.491-6.824,91.81c-4.479,20.363-21.321,35.686-42.019,38.224
		c-48.229,5.387-97.042,5.417-145.64,5.387c-48.598-0.031-97.41,0-145.64-5.387c-20.7-2.529-37.546-17.854-42.018-38.224
		c-6.763-29.439-6.763-61.604-6.763-91.81s0-62.461,6.855-91.81c4.418-20.405,21.289-35.765,42.018-38.253
		c48.23-5.417,97.042-5.417,145.64-5.417c48.597,0,97.41,0,145.641,5.417c20.704,2.514,37.546,17.868,41.957,38.253
		c6.763,29.471,6.731,61.604,6.731,91.81"/>
	<g>
		<g>
			<g>
				<path fill="#2B2E35" d="M265.971,553.76c-5.203,7.344-10.16,10.986-14.873,10.986c-3.153,0-4.927-1.836-5.509-5.479
					c-0.263-3.053-0.334-6.118-0.214-9.182v-95.512h-23.503v102.612c-0.264,6.493,0.437,12.99,2.081,19.278
					c2.325,6.58,7.559,9.642,15.148,9.642c8.477,0,17.658-5.233,26.839-15.944v14.139l23.565,0.032V454.606h-23.534V553.76z"/>
				<polygon fill="#2B2E35" points="136.49,434.743 164.032,434.743 164.032,584.301 190.167,584.301 190.167,434.743 
					218.445,434.743 218.445,410.261 136.49,410.261 				"/>
				<path fill="#2B2E35" d="M378.743,493.716c0.352-8.757-0.44-17.521-2.356-26.074c-3.06-9.7-9.426-14.628-18.79-14.628
					c-8.63,0-16.679,4.743-24.269,14.077V410.2h-23.503v174.101h23.503v-12.548c7.835,9.701,15.914,14.354,24.269,14.354
					c9.364,0,15.669-4.929,18.79-14.567c1.882-8.578,2.674-17.358,2.356-26.135v-0.031V493.716z M355.24,547.24
					c0,11.721-3.458,17.475-10.223,17.475c-4.522-0.256-8.751-2.331-11.721-5.754v-79.078c2.983-3.398,7.205-5.461,11.721-5.723
					c6.765,0,10.223,6.121,10.223,17.688V547.24z"/>
				<path fill="#2B2E35" d="M467.462,542.926v-3.428h-23.993c0.117,5.31-0.047,10.621-0.488,15.913
					c-1.348,6.272-4.744,9.426-10.497,9.426c-8.05,0-11.996-6.12-11.996-17.994V523.86h47.006v-26.839
					c0-13.863-2.356-24.023-7.283-30.604c-6.436-8.794-16.84-13.789-27.727-13.313c-11.009-0.485-21.544,4.497-28.154,13.313
					c-5.021,6.549-7.253,16.709-7.253,30.604v45.293c0,13.771,2.54,24.022,7.527,30.603c6.715,8.854,17.363,13.823,28.462,13.282
					c11.271,0.561,22.026-4.755,28.43-14.047c2.863-4.221,4.735-9.032,5.478-14.077c0.215-2.356,0.521-7.59,0.521-15.302
					L467.462,542.926z M420.516,492.124c0-11.996,3.929-18.005,11.782-18.025c7.773,0,11.69,6.121,11.69,18.025v11.997h-23.473
					V492.124z"/>
			</g>
		</g>
	</g>
</g>
</svg>
